<?xml version="1.0" encoding="utf-8"?>
<!-- Generator: Adobe Illustrator 26.0.1, SVG Export Plug-In . SVG Version: 6.00 Build 0)  -->
<svg version="1.1" id="Layer_1" xmlns="http://www.w3.org/2000/svg" xmlns:xlink="http://www.w3.org/1999/xlink" x="0px" y="0px"
	 viewBox="0 0 176 176" style="enable-background:new 0 0 176 176;" xml:space="preserve">
<style type="text/css">
	.st0{fill:#32CD32;}
	.st1{fill:#FFFFFF;}
</style>
<g>
	<g>
		
			<image style="overflow:visible;opacity:0.2;enable-background:new    ;" width="74" height="69" xlink:href="58348E5.png"  transform="matrix(1 0 0 1 53 71)">
		</image>
		<g>
			<g>
				<g>
					<path class="st0" d="M119.6,104.3c0,15.4-13.8,28.3-30.8,28.3S58,119.7,58,104.3s13.7-27.8,30.8-27.8S119.6,89,119.6,104.3z"/>
				</g>
			</g>
		</g>
	</g>
	<g>
		
			<image style="overflow:visible;opacity:0.2;enable-background:new    ;" width="143" height="71" xlink:href="58348E6.png"  transform="matrix(1 0 0 1 18 5)">
		</image>
		<g>
			<g>
				<path class="st1" d="M25,57.5l1.6,0.1c0.3,0,0.5,0.2,0.4,0.5l-0.4,4.8c0,0.3,0.2,0.5,0.4,0.5l3,0.2c0.3,0,0.5-0.2,0.5-0.4
					l0.3-3.5c0-0.3,0.2-0.5,0.5-0.4l1.5,0.1c0.3,0,0.5,0.2,0.4,0.5L33,63.5c0,0.3,0.2,0.5,0.4,0.5l5.6,0.5c0.3,0,0.5,0.2,0.4,0.5
					l-0.1,1.8c0,0.3-0.2,0.5-0.5,0.4L24.3,66c-0.3,0-0.5-0.2-0.4-0.5l0.6-7.6C24.5,57.6,24.8,57.4,25,57.5z"/>
				<path class="st1" d="M36.5,35.3l11.3,9.1c0.2,0.2,0.2,0.5,0.1,0.7l-1.2,1.4c-0.2,0.2-0.5,0.2-0.7,0.1l-11.3-9.1
					c-0.2-0.2-0.2-0.5-0.1-0.7l1.2-1.4C36,35.2,36.3,35.1,36.5,35.3z"/>
				<path class="st1" d="M69.4,29.7l-1.8,0.9c-0.1,0.1-0.3,0.1-0.5,0L58.4,25c-0.4-0.3-0.9,0.2-0.7,0.6l3.8,7.5
					c0.1,0.2,0,0.5-0.2,0.6l-1.7,0.8c-0.2,0.1-0.5,0-0.6-0.2l-6.5-13c-0.1-0.2,0-0.5,0.2-0.6l1.8-0.9c0.1-0.1,0.3-0.1,0.5,0l8.7,5.6
					c0.4,0.3,0.9-0.2,0.7-0.6l-3.8-7.6c-0.1-0.2,0-0.5,0.2-0.6l1.7-0.8c0.2-0.1,0.5,0,0.6,0.2l6.5,13C69.7,29.3,69.6,29.6,69.4,29.7
					z"/>
				<path class="st1" d="M93.1,11.9c1.1,0.7,1.9,1.6,2.5,2.8s0.8,2.6,0.8,4.1s-0.4,2.9-1,4s-1.5,2-2.6,2.6s-2.4,0.9-3.9,0.9
					l-4.4-0.1c-0.3,0-0.5-0.2-0.5-0.5l0.3-14.5c0-0.3,0.2-0.5,0.5-0.5l4.4,0.1C90.7,10.9,92,11.3,93.1,11.9z M92.3,22.5
					c0.8-0.9,1.2-2.1,1.3-3.7c0-1.6-0.3-2.9-1.1-3.8c-0.8-0.9-1.9-1.4-3.4-1.4h-1.5c-0.3,0-0.5,0.2-0.5,0.5l-0.2,9.3
					c0,0.3,0.2,0.5,0.5,0.5h1.5C90.4,23.8,91.5,23.3,92.3,22.5z"/>
				<path class="st1" d="M143,37.1l-10.2,10.3c-0.2,0.2-0.5,0.2-0.7,0l-1.3-1.3c-0.2-0.2-0.2-0.5,0-0.7l4.9-4.9
					c0.4-0.4-0.1-1-0.5-0.8l-7.1,3.2c-0.2,0.1-0.4,0-0.5-0.1l-1-1c-0.1-0.1-0.2-0.4-0.1-0.5l3.2-7.1c0.2-0.5-0.4-0.9-0.8-0.5
					l-4.9,4.9c-0.2,0.2-0.5,0.2-0.7,0l-1.3-1.3c-0.2-0.2-0.2-0.5,0-0.7l10.3-10.3c0.2-0.2,0.5-0.2,0.7,0l1.7,1.7
					c0.1,0.1,0.2,0.3,0.1,0.5l-4.4,9.9c-0.2,0.4,0.2,0.8,0.6,0.6l9.9-4.4c0.2-0.1,0.4,0,0.5,0.1l1.7,1.7
					C143.2,36.6,143.2,36.9,143,37.1z"/>
				<path class="st1" d="M150.5,62.5l-2.9,0.1c-0.3,0-0.5,0.2-0.5,0.5l0.2,3.7c0,0.3-0.2,0.5-0.5,0.5l-1.5,0.1
					c-0.3,0-0.5-0.2-0.5-0.5l-0.2-3.7c0-0.3-0.2-0.5-0.5-0.5l-3.2,0.1c-0.3,0-0.5,0.2-0.5,0.5l0.2,4.3c0,0.3-0.2,0.5-0.5,0.5
					l-1.6,0.1c-0.3,0-0.5-0.2-0.5-0.5l-0.3-7.1c0-0.3,0.2-0.5,0.5-0.5l14.5-0.6c0.3,0,0.5,0.2,0.5,0.5l0.3,7.1
					c0,0.3-0.2,0.5-0.5,0.5l-1.6,0.1c-0.3,0-0.5-0.2-0.5-0.5l-0.2-4.3C150.9,62.7,150.7,62.5,150.5,62.5z"/>
			</g>
		</g>
	</g>
	<g>
		
			<image style="overflow:visible;opacity:0.2;enable-background:new    ;" width="107" height="82" xlink:href="58348E7.png"  transform="matrix(1 0 0 1 36 38)">
		</image>
		<g>
			<path class="st1" d="M88.8,112.7c-0.7,0-1.3-0.3-1.8-0.8l-44-44c-1.5-1.5-1.5-3.9,0-5.4c12.2-12.2,28.5-19,45.8-19
				s33.6,6.7,45.8,19c1.5,1.5,1.5,3.9,0,5.4l-44,44C90.1,112.5,89.5,112.7,88.8,112.7z M88.8,103.7l38.4-38.4
				c-10.5-9.4-24.1-14.6-38.4-14.6c-14.2,0-27.8,5.2-38.4,14.6L88.8,103.7z"/>
		</g>
	</g>
	<g>
		
			<image style="overflow:visible;opacity:0.2;enable-background:new    ;" width="39" height="39" xlink:href="58348E8.png"  transform="matrix(1 0 0 1 70 114)">
		</image>
		<g>
			<g>
				<path class="st1" d="M98.5,145.6c-0.3,0-0.7-0.1-1-0.2c-0.5-0.2-0.9-0.4-1.2-0.6c-0.1-0.1-0.2-0.1-0.3-0.2
					c-1.1-0.6-2.3-1.2-3.4-1.8c-1-0.6-2.1-1.1-3.1-1.7c-0.2-0.1-0.5-0.2-0.7-0.2s-0.4,0.1-0.7,0.2c-2.5,1.3-5,2.7-7.4,4
					c-0.5,0.3-1.1,0.4-1.7,0.4c-0.9,0-1.7-0.3-2.3-1c-1-1-1.2-2.5-0.6-3.8c1.5-3,3-6,4.5-9l5.1-10.2c0.6-1.2,1.7-1.9,2.9-1.9
					c0.7,0,1.4,0.2,2,0.7c0.5,0.4,0.8,0.9,1,1.2c1.4,2.8,2.8,5.6,4.2,8.4l2,4.1c1.1,2.3,2.3,4.5,3.4,6.8c0.6,1.3,0.5,2.6-0.4,3.7
					C100.4,145.2,99.5,145.6,98.5,145.6z"/>
			</g>
		</g>
	</g>
	<g>
		
			<image style="overflow:visible;opacity:0.2;enable-background:new    ;" width="102" height="87" xlink:href="58348ED.png"  transform="matrix(1 0 0 1 39 58)">
		</image>
		<g>
			<path class="st1" d="M112.9,137.5c-1.3,0-2.6-0.6-3.4-1.8c-1.3-1.9-0.8-4.4,1.1-5.7c9.2-6.2,14.5-15.6,14.5-25.9
				c0-17.9-16.3-32.4-36.3-32.4s-36.3,14.5-36.3,32.4c0,10.3,5.3,19.7,14.5,25.9c1.9,1.3,2.4,3.8,1.1,5.7s-3.8,2.4-5.7,1.1
				c-5.5-3.7-10-8.5-13.1-14c-3.2-5.7-5-12.2-5-18.7c0-10.9,4.7-21.2,13.2-28.9c8.3-7.4,19.5-11.6,31.3-11.6s22.9,4.2,31.3,11.7
				c8.5,7.7,13.2,17.9,13.2,28.9c0,6.5-1.7,12.9-5,18.7c-3.1,5.5-7.6,10.3-13.1,14C114.5,137.3,113.7,137.5,112.9,137.5z"/>
		</g>
	</g>
	<g>
		
			<image style="overflow:visible;opacity:0.2;enable-background:new    ;" width="64" height="56" xlink:href="58348EE.png"  transform="matrix(1 0 0 1 58 75)">
		</image>
		<g>
			<path class="st1" d="M102.8,123.4c-0.8,0-1.5-0.4-2-1c-0.7-1.1-0.4-2.6,0.6-3.3c5.3-3.6,8.4-9,8.4-15c0-10.3-9.4-18.8-21-18.8
				s-21,8.4-21,18.8c0,5.9,3,11.4,8.4,15c1.1,0.7,1.4,2.2,0.6,3.3c-0.7,1.1-2.2,1.4-3.3,0.6c-3.2-2.1-5.8-4.9-7.6-8.1
				c-1.9-3.3-2.9-7-2.9-10.8c0-6.3,2.7-12.2,7.6-16.7c4.9-4.4,11.3-6.8,18.1-6.8c6.8,0,13.3,2.4,18.1,6.8c4.9,4.4,7.6,10.4,7.6,16.7
				c0,3.8-1,7.5-2.9,10.8c-1.8,3.2-4.4,6-7.6,8.1C103.7,123.3,103.2,123.4,102.8,123.4z"/>
		</g>
	</g>
	<g>
		
			<image style="overflow:visible;opacity:0.15;enable-background:new    ;" width="138" height="52" xlink:href="58348EF.png"  transform="matrix(1.1154 0 0 1.1154 12.0385 118)">
		</image>
		<g>
			<g>
				<path class="st1" d="M19.6,127c-0.9,0.3-1.9,0.2-2.8,0c-0.9-0.3-1.4-1-1.9-2c-0.1-0.4-0.3-1-0.6-1.9c1-0.2,2.2-0.6,3.5-1
					c1.2-0.3,2.3-0.7,3.1-1l0.2,0.8c0,0.1,0.1,0.3,0.2,0.6c0.1,0.2,0.1,0.4,0.2,0.4c0.3,1.1,0.3,2-0.1,2.7
					C21.2,126.3,20.5,126.8,19.6,127z M19.1,125.9c0.7-0.2,1.1-0.6,1.4-1c0.3-0.4,0.3-1,0.1-1.8c0-0.1-0.1-0.3-0.2-0.6
					c-0.7,0.2-1.3,0.4-2.1,0.7c-0.8,0.2-1.6,0.6-2.5,0.8c0,0.2,0.1,0.4,0.1,0.6c0.2,0.7,0.6,1,1.1,1.2C17.8,126,18.4,126,19.1,125.9
					z"/>
				<path class="st1" d="M20.5,136.4l-0.7-1.1c0.9-0.6,2-1.1,3.1-1.9c1-0.7,2-1.2,2.8-1.8l0.7,1.1c-0.8,0.4-1.8,1-2.8,1.6
					C22.4,135.3,21.4,135.8,20.5,136.4z"/>
				<path class="st1" d="M28.8,146.4c-0.7-0.4-1.1-0.8-1.4-1.1c-0.7-0.8-1-1.6-0.9-2.6c0.1-0.9,0.4-1.6,1.1-2.3c0.7-0.7,1.6-1,2.6-1
					s1.9,0.3,2.6,1.1c0.3,0.3,0.6,0.8,0.8,1.1l-1,0.7c-0.2-0.4-0.4-0.8-0.8-1.1c-0.4-0.4-0.9-0.7-1.4-0.7c-0.6,0.1-1,0.3-1.6,0.8
					c-0.4,0.4-0.8,1-0.9,1.6s0,1.1,0.4,1.6c0.1,0.1,0.2,0.2,0.4,0.4c0.2-0.3,0.6-0.6,0.8-0.8s0.6-0.6,0.9-0.9l0.9,1
					c-0.4,0.3-0.8,0.7-1.2,1C29.6,145.6,29.2,145.9,28.8,146.4z"/>
				<path class="st1" d="M35.2,152.4l-1-0.8c0.7-0.8,1.5-1.8,2.3-2.8c0.8-1,1.4-1.9,2-2.7l1,0.8c-0.6,0.7-1.2,1.4-2.1,2.6
					C36.6,150.5,35.9,151.6,35.2,152.4z"/>
				<path class="st1" d="M48.7,153.1l-0.6,0.9c-0.6-0.3-1-0.7-1.5-1c-0.3,0.6-0.7,1.1-1.1,1.9c-0.7,1-1.2,2.1-1.9,3.1l-1.1-0.7
					c0.6-0.9,1.2-2,2-3c0.4-0.7,0.8-1.2,1.1-2c-0.3-0.2-0.9-0.6-1.6-0.9l0.6-0.9L48.7,153.1z"/>
				<path class="st1" d="M56.2,164.3l-1.3-0.6c0.1-0.2,0.2-0.9,0.3-2l-2.1-0.9c-0.7,0.8-1.1,1.3-1.1,1.6l-1.3-0.6
					c0-0.1,0.8-1,2.5-2.7c1.6-1.6,2.3-2.6,2.5-2.8l1.6,0.7c-0.1,0.2-0.2,1.3-0.4,3.6C56.4,162.9,56.3,164.1,56.2,164.3z M55.4,160.6
					c0.2-1.9,0.3-2.9,0.4-3h-0.1c0,0.1-0.7,0.9-2,2.3L55.4,160.6z"/>
				<path class="st1" d="M66.9,166.6l-0.3,1l-3.8-1.1c0.3-0.9,0.7-2.1,1-3.5c0.3-1.2,0.7-2.3,0.8-3.1l1.2,0.3
					c-0.2,0.8-0.6,1.9-0.9,3.1c-0.3,1-0.6,1.9-0.8,2.5C65.1,166.2,66,166.4,66.9,166.6z"/>
				<path class="st1" d="M93,169.4l-0.1,1.1c-0.4,0.1-0.9,0.2-1.3,0.2c-1.1,0-2-0.3-2.6-0.9c-0.6-0.7-0.9-1.5-0.9-2.5
					c0-1,0.3-1.9,0.9-2.6c0.6-0.7,1.5-1.1,2.6-1.1c0.3,0,0.8,0,1.1,0.1l-0.1,1.2c-0.3-0.1-0.7-0.2-1-0.2c-0.7,0-1.1,0.2-1.5,0.7
					c-0.3,0.4-0.4,1-0.4,1.6c0,0.7,0.2,1.2,0.6,1.8c0.3,0.4,0.9,0.7,1.6,0.7C92.1,169.6,92.6,169.6,93,169.4z"/>
				<path class="st1" d="M105.4,165.8c0.1,1,0,2-0.4,2.8c-0.4,0.8-1.1,1.2-2.1,1.3c-0.8,0.1-1.6-0.1-2.2-0.7c-0.7-0.6-1-1.3-1.1-2.3
					c-0.1-1,0-2,0.4-2.8c0.4-0.8,1.1-1.2,2.1-1.3c0.8-0.1,1.6,0.1,2.2,0.7C104.8,164,105.3,164.8,105.4,165.8z M104.2,166.2
					c-0.1-0.7-0.3-1.2-0.8-1.8c-0.4-0.3-0.8-0.6-1.3-0.4c-0.4,0.1-0.8,0.3-1,0.8c-0.2,0.4-0.3,1.1-0.2,1.9c0.1,0.7,0.3,1.2,0.8,1.8
					c0.4,0.3,0.8,0.6,1.3,0.4c0.4-0.1,0.8-0.3,1-0.8C104.2,167.4,104.3,166.9,104.2,166.2z"/>
				<path class="st1" d="M118,166.3l-1.1,0.3c0-0.1-0.7-0.7-2-1.9c-1.2-1.1-2.1-2-2.3-2.5h-0.1c0.3,0.7,0.6,1.3,0.7,2
					c0.2,0.8,0.6,1.9,0.9,3l-1.1,0.3c-0.2-1-0.6-2.2-0.9-3.5c-0.3-1.2-0.7-2.3-1-3.1l1.3-0.4c0,0.2,0.7,0.8,1.8,1.9
					c1.1,1,2,1.9,2.2,2.3h0.1c-0.3-0.7-0.6-1.3-0.7-2c-0.2-0.9-0.6-1.9-0.9-2.8l1.1-0.3c0.2,0.8,0.4,1.9,0.9,3.1
					C117.3,164.1,117.7,165.3,118,166.3z"/>
				<path class="st1" d="M126.4,155.5l0.4,1c-0.6,0.2-1.1,0.4-1.8,0.7c0.2,0.6,0.6,1.2,0.9,2.1c0.6,1.1,1,2.2,1.5,3.2l-1.2,0.6
					c-0.4-1-0.9-2.1-1.3-3.3c-0.3-0.7-0.7-1.3-0.9-2c-0.4,0.2-0.9,0.4-1.6,0.8l-0.4-1L126.4,155.5z"/>
				<path class="st1" d="M139.9,155.5l-1.2,0.8c-0.1-0.2-0.6-0.7-1.3-1.3l-1.9,1.1c0.3,1,0.6,1.8,0.7,1.9l-1.2,0.8
					c-0.1-0.1-0.3-1.2-0.9-3.5c-0.4-2.2-0.8-3.3-0.9-3.6l1.4-1c0.1,0.1,1,0.9,2.8,2.3S139.8,155.4,139.9,155.5z M136.4,154.1
					c-1.3-1.2-2.2-1.9-2.3-2.1h-0.1c0.1,0.1,0.3,1,0.9,2.9L136.4,154.1z"/>
				<path class="st1" d="M148,147l0.8,0.9c-0.2,0.3-0.6,0.7-0.9,1c-0.8,0.7-1.6,1-2.6,0.9c-0.9-0.1-1.6-0.4-2.3-1.1
					c-0.7-0.7-1-1.6-1-2.6c0-1,0.3-1.8,1.1-2.6c0.3-0.2,0.6-0.4,0.9-0.7l0.7,1c-0.3,0.1-0.7,0.3-0.9,0.6c-0.4,0.4-0.7,0.9-0.6,1.4
					c0.1,0.6,0.3,1,0.8,1.4s0.9,0.8,1.6,0.9c0.6,0.1,1.1-0.1,1.6-0.6C147.4,147.9,147.8,147.4,148,147z"/>
				<path class="st1" d="M150.9,134.8l0.9,0.7c-0.4,0.4-0.8,0.9-1.1,1.3c0.6,0.3,1.1,0.8,1.8,1.2c1,0.8,2,1.5,2.9,2.1l-0.8,1
					c-0.9-0.7-1.9-1.3-2.9-2.2c-0.7-0.4-1.2-0.9-1.9-1.2c-0.2,0.3-0.6,0.9-1,1.4l-0.9-0.7L150.9,134.8z"/>
				<path class="st1" d="M160.2,127.7c1.2,0.6,1.4,1.6,0.8,3.3c-0.2,0.6-0.6,1-0.9,1.4l-1-0.7c0.3-0.4,0.7-0.8,0.8-1.2
					c0.2-0.4,0.2-0.8,0.2-1s-0.1-0.4-0.3-0.6c-0.2-0.1-0.4-0.1-0.7,0c-0.2,0.1-0.6,0.3-1,0.8c-0.4,0.3-0.8,0.6-1.1,0.7
					c-0.4,0.1-0.9,0.1-1.3-0.1c-0.6-0.2-0.9-0.6-1-1.1c-0.1-0.6-0.1-1.1,0.2-1.9c0.2-0.6,0.4-1,0.8-1.3l1,0.6
					c-0.3,0.3-0.6,0.7-0.8,1.1c-0.3,0.7-0.2,1.1,0.2,1.2c0.2,0.1,0.4,0.1,0.6,0c0.2-0.1,0.4-0.3,0.9-0.7c0.4-0.4,0.8-0.7,1.2-0.8
					C159,127.5,159.5,127.5,160.2,127.7z"/>
			</g>
		</g>
	</g>
</g>
</svg>
